<svg enable-background="new 0 0 1280 769" viewBox="0 0 1280 769" xmlns="http://www.w3.org/2000/svg"><path d="m0-769h1280v769h-1280z" fill="#fff"/><path d="m0 0h1280v769h-1280z" fill="#fff"/><path d="m714.91 197.27c-25.93-26.74-61.29-41.46-99.56-41.46h-79.92l32.85 67.8h52.58c20.16 0 38.79 7.75 52.45 21.84 13.59 14.01 21.08 33.06 21.08 53.64s-7.49 39.63-21.08 53.65c-13.66 14.08-32.29 21.84-52.45 21.84h-52.58l-32.85 67.79h79.92c38.27 0 73.63-14.72 99.56-41.45 25.8-26.6 40.01-62.76 40.01-101.83 0-39.06-14.21-75.23-40.01-101.82z" fill="#0015bf"/><g fill="#00f"><path d="m695.37 299.09c0-39.07-14.21-75.23-40.01-101.82-25.78-26.58-60.87-41.26-98.87-41.44 6.24.22 54.44 3.46 92.78 52.33 8.37 10.67 15.11 21.99 20.21 33.72 1.3 1.16 2.61 2.31 3.84 3.57 13.59 14.01 21.08 33.06 21.08 53.64s-7.49 39.63-21.08 53.64c-2.06 2.12-4.26 4.05-6.53 5.88-4.45 9.38-9.95 18.64-16.53 27.66-35.77 49.06-78.36 55.27-90.85 56.02 36.87-.9 70.83-15.48 95.95-41.37 25.8-26.6 40.01-62.76 40.01-101.83z" opacity=".9"/><path d="m556.49 155.83c-.44-.02-.69-.02-.69-.02.23 0 .46.02.69.02z"/><path d="m557.26 442.37c.57-.01 1.28-.04 2.15-.09-1.2.03-2.4.09-3.61.09z"/><path d="m664.34 299.09c0 13.7-4.98 26.39-14.03 35.71-9.1 9.38-21.5 14.54-34.92 14.54h-72.27l-45.08 93.03v-286.56l45.08 93.03h72.27c13.42 0 25.82 5.16 34.92 14.54 9.05 9.33 14.03 22.01 14.03 35.71z"/><path d="m714.91 197.27c-25.94-26.74-61.29-41.46-99.56-41.46h-59.55c38.27 0 73.63 14.72 99.56 41.46 25.8 26.59 40.01 62.76 40.01 101.82 0 39.07-14.21 75.23-40.01 101.83-25.94 26.73-61.29 41.46-99.56 41.46h59.55c38.27 0 73.63-14.72 99.56-41.46 25.8-26.59 40.01-62.76 40.01-101.83 0-39.06-14.21-75.23-40.01-101.82z"/><path d="m714.91 197.27c-25.94-26.74-61.29-41.46-99.56-41.46h-12.54c38.27 0 73.63 14.72 99.56 41.46 25.8 26.59 40.01 62.76 40.01 101.82 0 39.07-14.21 75.23-40.01 101.83-25.94 26.73-61.29 41.46-99.56 41.46h12.54c38.27 0 73.63-14.72 99.56-41.46 25.8-26.59 40.01-62.76 40.01-101.83 0-39.06-14.21-75.23-40.01-101.82z"/><path d="m709.92 299.09c0-39.07-14.21-75.23-40.01-101.82-25.94-26.74-57.56-41.46-95.82-41.46h-18.29c38.27 0 73.63 14.72 99.56 41.46 25.8 26.59 40.01 62.76 40.01 101.82 0 39.07-14.21 75.23-40.01 101.83-25.94 26.73-61.29 41.46-99.56 41.46h18.29c38.27 0 69.89-14.72 95.82-41.46 25.81-26.6 40.01-62.76 40.01-101.83z"/></g><path d="m767.3-469.46c-25.93-26.74-61.29-41.46-99.56-41.46h-79.92l32.85 67.8h52.58c20.16 0 38.79 7.75 52.45 21.84 13.59 14.01 21.08 33.06 21.08 53.64s-7.49 39.63-21.08 53.65c-13.66 14.08-32.29 21.84-52.45 21.84h-52.58l-32.85 67.79h79.92c38.27 0 73.63-14.72 99.56-41.45 25.8-26.6 40.01-62.76 40.01-101.83 0-39.06-14.21-75.23-40.01-101.82z" fill="#0015bf"/><path d="m747.76-367.64c0-39.07-14.21-75.23-40.01-101.82-25.78-26.58-60.87-41.26-98.87-41.44 6.24.22 54.44 3.46 92.78 52.33 8.37 10.67 15.11 21.99 20.21 33.72 1.3 1.16 2.61 2.31 3.84 3.57 13.59 14.01 21.08 33.06 21.08 53.64s-7.49 39.63-21.08 53.64c-2.06 2.12-4.26 4.05-6.53 5.88-4.45 9.38-9.95 18.64-16.53 27.66-35.77 49.06-78.36 55.27-90.85 56.02 36.87-.9 70.83-15.48 95.95-41.37 25.8-26.6 40.01-62.76 40.01-101.83z" fill="#00f" opacity=".9"/><path d="m608.88-510.9c-.44-.01-.69-.02-.69-.02.23 0 .46.02.69.02z" fill="#00f"/><path d="m609.65-224.35c.57-.01 1.28-.04 2.15-.09-1.2.03-2.4.09-3.61.09z" fill="#00f"/><path d="m716.73-367.64c0 13.7-4.98 26.39-14.03 35.71-9.1 9.38-21.5 14.54-34.92 14.54h-72.27l-45.08 93.03v-286.56l45.08 93.03h72.27c13.42 0 25.82 5.16 34.92 14.54 9.05 9.33 14.03 22.01 14.03 35.71z" fill="#00f"/><path d="m767.3-469.46c-25.94-26.74-61.29-41.46-99.56-41.46h-59.55c38.27 0 73.63 14.72 99.56 41.46 25.8 26.59 40.01 62.76 40.01 101.82 0 39.07-14.21 75.23-40.01 101.83-25.94 26.73-61.29 41.46-99.56 41.46h59.55c38.27 0 73.63-14.72 99.56-41.46 25.8-26.59 40.01-62.76 40.01-101.83 0-39.06-14.21-75.23-40.01-101.82z" fill="#00f"/><path d="m767.3-469.46c-25.94-26.74-61.29-41.46-99.56-41.46h-12.54c38.27 0 73.63 14.72 99.56 41.46 25.8 26.59 40.01 62.76 40.01 101.82 0 39.07-14.21 75.23-40.01 101.83-25.94 26.73-61.29 41.46-99.56 41.46h12.54c38.27 0 73.63-14.72 99.56-41.46 25.8-26.59 40.01-62.76 40.01-101.83 0-39.06-14.21-75.23-40.01-101.82z" fill="#00f"/><path d="m762.31-367.64c0-39.07-14.21-75.23-40.01-101.82-25.94-26.74-57.56-41.46-95.82-41.46h-18.29c38.27 0 73.63 14.72 99.56 41.46 25.8 26.59 40.01 62.76 40.01 101.82 0 39.07-14.21 75.23-40.01 101.83-25.94 26.73-61.29 41.46-99.56 41.46h18.29c38.27 0 69.89-14.72 95.82-41.46 25.8-26.6 40.01-62.76 40.01-101.83z" fill="#00f"/><text font-family="'Cornerstone'" font-size="121.7858" transform="translate(468.6008 590.7632)">Dhali</text></svg>