<?xml version="1.0" encoding="utf-8"?>
<!-- Generator: Adobe Illustrator 23.0.2, SVG Export Plug-In . SVG Version: 6.00 Build 0)  -->
<svg version="1.1" id="Layer_1" xmlns="http://www.w3.org/2000/svg" xmlns:xlink="http://www.w3.org/1999/xlink" x="0px" y="0px"
	 viewBox="0 0 1280 769" style="enable-background:new 0 0 1280 769;" xml:space="preserve">
<style type="text/css">
	.st0{fill:#FFFFFF;}
	.st1{fill:#0015BF;}
	.st2{opacity:0.9;fill:#0000FF;}
	.st3{fill:#0000FF;}
	.st4{font-family:'Cornerstone';}
	.st5{font-size:121.7858px;}
</style>
<rect y="-769" class="st0" width="1280" height="769"/>
<rect class="st0" width="1280" height="769"/>
<g>
	<path class="st1" d="M714.91,197.27c-25.93-26.74-61.29-41.46-99.56-41.46h-79.92l32.85,67.8h52.58c20.16,0,38.79,7.75,52.45,21.84
		c13.59,14.01,21.08,33.06,21.08,53.64s-7.49,39.63-21.08,53.65c-13.66,14.08-32.29,21.84-52.45,21.84h-52.58l-32.85,67.79h79.92
		c38.27,0,73.63-14.72,99.56-41.45c25.8-26.6,40.01-62.76,40.01-101.83C754.92,260.03,740.71,223.86,714.91,197.27z"/>
	<g>
		<path class="st2" d="M695.37,299.09c0-39.07-14.21-75.23-40.01-101.82c-25.78-26.58-60.87-41.26-98.87-41.44
			c6.24,0.22,54.44,3.46,92.78,52.33c8.37,10.67,15.11,21.99,20.21,33.72c1.3,1.16,2.61,2.31,3.84,3.57
			c13.59,14.01,21.08,33.06,21.08,53.64c0,20.58-7.49,39.63-21.08,53.64c-2.06,2.12-4.26,4.05-6.53,5.88
			c-4.45,9.38-9.95,18.64-16.53,27.66c-35.77,49.06-78.36,55.27-90.85,56.02c36.87-0.9,70.83-15.48,95.95-41.37
			C681.16,374.32,695.37,338.16,695.37,299.09z"/>
		<path class="st3" d="M556.49,155.83c-0.44-0.02-0.69-0.02-0.69-0.02C556.03,155.81,556.26,155.83,556.49,155.83z"/>
		<path class="st3" d="M557.26,442.37c0.57-0.01,1.28-0.04,2.15-0.09c-1.2,0.03-2.4,0.09-3.61,0.09H557.26z"/>
	</g>
	<path class="st3" d="M664.34,299.09c0,13.7-4.98,26.39-14.03,35.71c-9.1,9.38-21.5,14.54-34.92,14.54h-72.27l-45.08,93.03V155.81
		l45.08,93.03h72.27c13.42,0,25.82,5.16,34.92,14.54C659.36,272.71,664.34,285.39,664.34,299.09z"/>
	<path class="st3" d="M714.91,197.27c-25.94-26.74-61.29-41.46-99.56-41.46H555.8c38.27,0,73.63,14.72,99.56,41.46
		c25.8,26.59,40.01,62.76,40.01,101.82c0,39.07-14.21,75.23-40.01,101.83c-25.94,26.73-61.29,41.46-99.56,41.46h59.55
		c38.27,0,73.63-14.72,99.56-41.46c25.8-26.59,40.01-62.76,40.01-101.83C754.92,260.03,740.71,223.86,714.91,197.27z"/>
	<path class="st3" d="M714.91,197.27c-25.94-26.74-61.29-41.46-99.56-41.46h-12.54c38.27,0,73.63,14.72,99.56,41.46
		c25.8,26.59,40.01,62.76,40.01,101.82c0,39.07-14.21,75.23-40.01,101.83c-25.94,26.73-61.29,41.46-99.56,41.46h12.54
		c38.27,0,73.63-14.72,99.56-41.46c25.8-26.59,40.01-62.76,40.01-101.83C754.92,260.03,740.71,223.86,714.91,197.27z"/>
	<path class="st3" d="M709.92,299.09c0-39.07-14.21-75.23-40.01-101.82c-25.94-26.74-57.56-41.46-95.82-41.46H555.8
		c38.27,0,73.63,14.72,99.56,41.46c25.8,26.59,40.01,62.76,40.01,101.82c0,39.07-14.21,75.23-40.01,101.83
		c-25.94,26.73-61.29,41.46-99.56,41.46h18.29c38.27,0,69.89-14.72,95.82-41.46C695.72,374.32,709.92,338.16,709.92,299.09z"/>
</g>
<g>
	<path class="st1" d="M767.3-469.46c-25.93-26.74-61.29-41.46-99.56-41.46h-79.92l32.85,67.8h52.58c20.16,0,38.79,7.75,52.45,21.84
		c13.59,14.01,21.08,33.06,21.08,53.64s-7.49,39.63-21.08,53.65c-13.66,14.08-32.29,21.84-52.45,21.84h-52.58l-32.85,67.79h79.92
		c38.27,0,73.63-14.72,99.56-41.45c25.8-26.6,40.01-62.76,40.01-101.83C807.31-406.7,793.1-442.87,767.3-469.46z"/>
	<g>
		<path class="st2" d="M747.76-367.64c0-39.07-14.21-75.23-40.01-101.82c-25.78-26.58-60.87-41.26-98.87-41.44
			c6.24,0.22,54.44,3.46,92.78,52.33c8.37,10.67,15.11,21.99,20.21,33.72c1.3,1.16,2.61,2.31,3.84,3.57
			c13.59,14.01,21.08,33.06,21.08,53.64c0,20.58-7.49,39.63-21.08,53.64c-2.06,2.12-4.26,4.05-6.53,5.88
			c-4.45,9.38-9.95,18.64-16.53,27.66c-35.77,49.06-78.36,55.27-90.85,56.02c36.87-0.9,70.83-15.48,95.95-41.37
			C733.55-292.41,747.76-328.57,747.76-367.64z"/>
		<path class="st3" d="M608.88-510.9c-0.44-0.01-0.69-0.02-0.69-0.02C608.42-510.92,608.65-510.9,608.88-510.9z"/>
		<path class="st3" d="M609.65-224.35c0.57-0.01,1.28-0.04,2.15-0.09c-1.2,0.03-2.4,0.09-3.61,0.09H609.65z"/>
	</g>
	<path class="st3" d="M716.73-367.64c0,13.7-4.98,26.39-14.03,35.71c-9.1,9.38-21.5,14.54-34.92,14.54h-72.27l-45.08,93.03v-286.56
		l45.08,93.03h72.27c13.42,0,25.82,5.16,34.92,14.54C711.75-394.02,716.73-381.34,716.73-367.64z"/>
	<path class="st3" d="M767.3-469.46c-25.94-26.74-61.29-41.46-99.56-41.46h-59.55c38.27,0,73.63,14.72,99.56,41.46
		c25.8,26.59,40.01,62.76,40.01,101.82c0,39.07-14.21,75.23-40.01,101.83c-25.94,26.73-61.29,41.46-99.56,41.46h59.55
		c38.27,0,73.63-14.72,99.56-41.46c25.8-26.59,40.01-62.76,40.01-101.83C807.31-406.7,793.1-442.87,767.3-469.46z"/>
	<path class="st3" d="M767.3-469.46c-25.94-26.74-61.29-41.46-99.56-41.46H655.2c38.27,0,73.63,14.72,99.56,41.46
		c25.8,26.59,40.01,62.76,40.01,101.82c0,39.07-14.21,75.23-40.01,101.83c-25.94,26.73-61.29,41.46-99.56,41.46h12.54
		c38.27,0,73.63-14.72,99.56-41.46c25.8-26.59,40.01-62.76,40.01-101.83C807.31-406.7,793.1-442.87,767.3-469.46z"/>
	<path class="st3" d="M762.31-367.64c0-39.07-14.21-75.23-40.01-101.82c-25.94-26.74-57.56-41.46-95.82-41.46h-18.29
		c38.27,0,73.63,14.72,99.56,41.46c25.8,26.59,40.01,62.76,40.01,101.82c0,39.07-14.21,75.23-40.01,101.83
		c-25.94,26.73-61.29,41.46-99.56,41.46h18.29c38.27,0,69.89-14.72,95.82-41.46C748.1-292.41,762.31-328.57,762.31-367.64z"/>
</g>
<text transform="matrix(1 0 0 1 468.6008 590.7632)" class="st4 st5">Dhali</text>
</svg>
